<svg width="117" height="34" viewBox="0 0 117 34" fill="none" xmlns="http://www.w3.org/2000/svg">
<rect width="116.783" height="34" rx="11.8261" fill="#E38B29"/>
<path d="M32.4828 26.7044C32.5382 27.0739 32.3996 27.4681 32.0809 27.7268C31.9527 27.8409 31.8004 27.9315 31.6328 27.9933C31.4652 28.0552 31.2855 28.087 31.104 28.087C30.9225 28.087 30.7428 28.0552 30.5752 27.9933C30.4076 27.9315 30.2553 27.8409 30.1271 27.7268L24.5705 22.7876C24.4195 22.6562 24.3046 22.4956 24.2349 22.3182C24.1652 22.1409 24.1426 21.9517 24.1687 21.7653V15.4589L17.5313 7.90844C17.3063 7.65166 17.2047 7.32615 17.2489 7.00304C17.293 6.67992 17.4792 6.38548 17.7669 6.18403C18.0301 6.01159 18.3211 5.91306 18.626 5.91306H38.0255C38.3303 5.91306 38.6213 6.01159 38.8846 6.18403C39.1722 6.38548 39.3584 6.67992 39.4026 7.00304C39.4467 7.32615 39.3452 7.65166 39.1202 7.90844L32.4828 15.4589V26.7044ZM21.4528 8.37649L26.94 14.609V21.4081L29.7114 23.8715V14.5967L35.1987 8.37649H21.4528Z" fill="#FDEEDC"/>
<path d="M50.1335 9.60735V23H48.3582V9.60735H50.1335ZM55.7444 15.6322V17.0855H49.7472V15.6322H55.7444ZM56.655 9.60735V11.0607H49.7472V9.60735H56.655ZM60.3619 13.0475V23H58.6511V13.0475H60.3619ZM58.5223 10.4076C58.5223 10.1316 58.6051 9.89863 58.7706 9.70853C58.9423 9.51843 59.1938 9.42338 59.5249 9.42338C59.8499 9.42338 60.0982 9.51843 60.2699 9.70853C60.4478 9.89863 60.5367 10.1316 60.5367 10.4076C60.5367 10.6713 60.4478 10.8982 60.2699 11.0883C60.0982 11.2722 59.8499 11.3642 59.5249 11.3642C59.1938 11.3642 58.9423 11.2722 58.7706 11.0883C58.6051 10.8982 58.5223 10.6713 58.5223 10.4076ZM64.9427 8.87149V23H63.2318V8.87149H64.9427ZM71.8413 13.0475V14.3536H66.4604V13.0475H71.8413ZM68.2816 10.6284H69.9833V20.5349C69.9833 20.8721 70.0354 21.1266 70.1397 21.2983C70.2439 21.47 70.3788 21.5835 70.5444 21.6387C70.71 21.6938 70.8878 21.7214 71.0779 21.7214C71.2189 21.7214 71.3661 21.7092 71.5194 21.6847C71.6788 21.654 71.7984 21.6295 71.8781 21.6111L71.8873 23C71.7524 23.0429 71.5746 23.0828 71.3538 23.1196C71.1392 23.1625 70.8786 23.184 70.572 23.184C70.155 23.184 69.7717 23.1012 69.4222 22.9356C69.0727 22.77 68.7937 22.4941 68.5852 22.1078C68.3828 21.7153 68.2816 21.1879 68.2816 20.5257V10.6284ZM77.9674 23.184C77.2744 23.184 76.6459 23.0675 76.0817 22.8344C75.5237 22.5953 75.0423 22.2611 74.6376 21.8318C74.239 21.4026 73.9324 20.8936 73.7178 20.3049C73.5032 19.7162 73.3959 19.0723 73.3959 18.3733V17.987C73.3959 17.1775 73.5154 16.457 73.7546 15.8254C73.9937 15.1876 74.3187 14.648 74.7296 14.2065C75.1405 13.765 75.6065 13.4308 76.1277 13.2039C76.649 12.977 77.1886 12.8635 77.7466 12.8635C78.458 12.8635 79.0712 12.9862 79.5863 13.2315C80.1075 13.4767 80.5337 13.8201 80.8648 14.2617C81.196 14.697 81.4413 15.2121 81.6007 15.807C81.7601 16.3957 81.8398 17.0395 81.8398 17.7386V18.5021H74.4077V17.1131H80.1382V16.9843C80.1136 16.5428 80.0217 16.1136 79.8622 15.6966C79.7089 15.2796 79.4636 14.9362 79.1264 14.6664C78.7891 14.3966 78.3292 14.2617 77.7466 14.2617C77.3603 14.2617 77.0046 14.3444 76.6796 14.51C76.3546 14.6695 76.0756 14.9086 75.8426 15.2275C75.6096 15.5464 75.4287 15.9357 75.2999 16.3957C75.1711 16.8556 75.1067 17.386 75.1067 17.987V18.3733C75.1067 18.8455 75.1711 19.29 75.2999 19.707C75.4348 20.1179 75.628 20.4797 75.8794 20.7924C76.1369 21.1052 76.4466 21.3504 76.8084 21.5283C77.1763 21.7061 77.5933 21.795 78.0594 21.795C78.6603 21.795 79.1693 21.6724 79.5863 21.4271C80.0033 21.1818 80.3681 20.8537 80.6809 20.4429L81.7111 21.2615C81.4964 21.5865 81.2236 21.8962 80.8924 22.1906C80.5613 22.4849 80.1535 22.7241 79.6691 22.908C79.1907 23.092 78.6235 23.184 77.9674 23.184ZM85.5283 14.6112V23H83.8267V13.0475H85.4824L85.5283 14.6112ZM88.6374 12.9923L88.6282 14.5744C88.4871 14.5437 88.3522 14.5253 88.2234 14.5192C88.1008 14.5069 87.9597 14.5008 87.8003 14.5008C87.4079 14.5008 87.0614 14.5621 86.7609 14.6848C86.4604 14.8074 86.2059 14.9791 85.9975 15.1999C85.789 15.4206 85.6234 15.6843 85.5007 15.9909C85.3842 16.2914 85.3076 16.6225 85.2708 16.9843L84.7925 17.2603C84.7925 16.6593 84.8507 16.0952 84.9672 15.5678C85.0899 15.0404 85.2769 14.5744 85.5283 14.1697C85.7798 13.7588 86.0986 13.44 86.485 13.2131C86.8774 12.98 87.3435 12.8635 87.8831 12.8635C88.0057 12.8635 88.1468 12.8789 88.3062 12.9095C88.4656 12.934 88.576 12.9616 88.6374 12.9923ZM96.0051 20.3601C96.0051 20.1148 95.95 19.8879 95.8396 19.6794C95.7353 19.4648 95.5176 19.2716 95.1865 19.0999C94.8615 18.9221 94.3709 18.7688 93.7148 18.64C93.1629 18.5235 92.6631 18.3855 92.2155 18.2261C91.774 18.0667 91.3968 17.8735 91.0841 17.6466C90.7775 17.4197 90.5414 17.153 90.3758 16.8464C90.2102 16.5398 90.1275 16.181 90.1275 15.7702C90.1275 15.3777 90.2133 15.0067 90.385 14.6572C90.5628 14.3077 90.8112 13.998 91.1301 13.7282C91.4551 13.4583 91.8445 13.2468 92.2983 13.0935C92.752 12.9402 93.2579 12.8635 93.816 12.8635C94.6131 12.8635 95.2938 13.0046 95.858 13.2866C96.4221 13.5687 96.8545 13.9459 97.1549 14.418C97.4554 14.8841 97.6056 15.4022 97.6056 15.9725H95.904C95.904 15.6966 95.8212 15.4298 95.6556 15.1723C95.4962 14.9086 95.2601 14.6909 94.9473 14.5192C94.6407 14.3475 94.2636 14.2617 93.816 14.2617C93.3438 14.2617 92.9605 14.3352 92.6662 14.4824C92.378 14.6235 92.1664 14.8044 92.0315 15.0251C91.9027 15.2459 91.8383 15.4789 91.8383 15.7242C91.8383 15.9081 91.869 16.0737 91.9303 16.2209C91.9978 16.3619 92.1143 16.4938 92.2799 16.6164C92.4454 16.7329 92.6784 16.8433 92.9789 16.9476C93.2794 17.0518 93.6627 17.156 94.1287 17.2603C94.9443 17.4443 95.6158 17.665 96.1431 17.9226C96.6705 18.1801 97.0629 18.4959 97.3205 18.87C97.578 19.244 97.7068 19.6978 97.7068 20.2313C97.7068 20.6667 97.6148 21.0653 97.4309 21.4271C97.253 21.7889 96.9924 22.1016 96.649 22.3653C96.3118 22.6229 95.907 22.8252 95.4349 22.9724C94.9688 23.1134 94.4445 23.184 93.862 23.184C92.9851 23.184 92.2431 23.0276 91.636 22.7149C91.0289 22.4021 90.569 21.9974 90.2562 21.5007C89.9435 21.004 89.7871 20.4797 89.7871 19.9278H91.498C91.5225 20.3938 91.6574 20.7648 91.9027 21.0408C92.148 21.3106 92.4485 21.5038 92.8042 21.6203C93.1598 21.7306 93.5124 21.7858 93.862 21.7858C94.328 21.7858 94.7174 21.7245 95.0301 21.6019C95.349 21.4792 95.5912 21.3106 95.7568 21.096C95.9224 20.8813 96.0051 20.636 96.0051 20.3601Z" fill="#FDEEDC"/>
</svg>
