<svg width="54" height="54" viewBox="0 0 54 54" fill="none" xmlns="http://www.w3.org/2000/svg">
<path fill-rule="evenodd" clip-rule="evenodd" d="M36.6663 19.75C36.6663 22.3138 35.6479 24.7725 33.835 26.5854C32.0222 28.3982 29.5634 29.4167 26.9997 29.4167C24.4359 29.4167 21.9772 28.3982 20.1643 26.5854C18.3515 24.7725 17.333 22.3138 17.333 19.75C17.333 17.1862 18.3515 14.7275 20.1643 12.9146C21.9772 11.1018 24.4359 10.0833 26.9997 10.0833C29.5634 10.0833 32.0222 11.1018 33.835 12.9146C35.6479 14.7275 36.6663 17.1862 36.6663 19.75ZM31.833 19.75C31.833 21.0319 31.3238 22.2613 30.4174 23.1677C29.5109 24.0741 28.2816 24.5833 26.9997 24.5833C25.7178 24.5833 24.4884 24.0741 23.582 23.1677C22.6756 22.2613 22.1663 21.0319 22.1663 19.75C22.1663 18.4681 22.6756 17.2387 23.582 16.3323C24.4884 15.4259 25.7178 14.9167 26.9997 14.9167C28.2816 14.9167 29.5109 15.4259 30.4174 16.3323C31.3238 17.2387 31.833 18.4681 31.833 19.75Z" fill="#E38B29"/>
<path fill-rule="evenodd" clip-rule="evenodd" d="M26.9998 0.416666C12.3186 0.416666 0.416504 12.3188 0.416504 27C0.416504 41.6812 12.3186 53.5833 26.9998 53.5833C41.6811 53.5833 53.5832 41.6812 53.5832 27C53.5832 12.3188 41.6811 0.416666 26.9998 0.416666ZM5.24984 27C5.24984 32.0508 6.97292 36.7005 9.86084 40.3932C11.8895 37.7303 14.506 35.5723 17.5063 34.0874C20.5066 32.6026 23.8093 31.8312 27.1569 31.8333C30.4614 31.8295 33.7232 32.5803 36.6934 34.0286C39.6636 35.4768 42.2639 37.5843 44.2959 40.1902C46.3898 37.4439 47.7997 34.2384 48.4088 30.8391C49.018 27.4397 48.8089 23.9442 47.7989 20.6417C46.7889 17.3392 45.007 14.3247 42.6006 11.8476C40.1942 9.37048 37.2326 7.50199 33.9608 6.39673C30.6889 5.29146 27.2009 4.9812 23.7853 5.4916C20.3698 6.002 17.1248 7.3184 14.319 9.33188C11.5132 11.3454 9.22721 13.998 7.65014 17.0704C6.07307 20.1428 5.25027 23.5465 5.24984 27ZM26.9998 48.75C22.0068 48.7581 17.1644 47.0404 13.2925 43.8877C14.8508 41.6562 16.9252 39.8342 19.3392 38.5769C21.7532 37.3197 24.4352 36.6643 27.1569 36.6667C29.8447 36.6643 32.4942 37.3033 34.8854 38.5307C37.2766 39.758 39.3404 41.5382 40.9053 43.7233C37.0036 46.9786 32.0812 48.758 26.9998 48.75Z" fill="#E38B29"/>
</svg>
