<svg width="35" height="37" viewBox="0 0 35 37" fill="none" xmlns="http://www.w3.org/2000/svg">
<path d="M2.68763 14.3577L1.34381 16.1364L0 14.3577L1.34381 12.579L2.68763 14.3577ZM35 34.4842C35 35.1514 34.7997 35.7913 34.4433 36.2631C34.0868 36.7349 33.6034 37 33.0993 37C32.5952 37 32.1117 36.7349 31.7553 36.2631C31.3988 35.7913 31.1985 35.1514 31.1985 34.4842H35ZM10.8475 28.7154L1.34381 16.1364L4.03144 12.579L13.5351 25.1581L10.8475 28.7154ZM1.34381 12.579L10.8475 0L13.5351 3.55735L4.03144 16.1364L1.34381 12.579ZM2.68763 11.8419H21.6949V16.8735H2.68763V11.8419ZM35 29.4526V34.4842H31.1985V29.4526H35ZM21.6949 11.8419C25.2236 11.8419 28.6078 13.6973 31.103 17C33.5982 20.3026 35 24.7819 35 29.4526H31.1985C31.1985 26.1164 30.1973 22.9169 28.415 20.5578C26.6327 18.1988 24.2154 16.8735 21.6949 16.8735V11.8419Z" fill="#FDEEDC"/>
</svg>
